<svg id="Ebene_1" data-name="Ebene 1" xmlns="http://www.w3.org/2000/svg" viewBox="0 0 1145.12 264"><defs><style>.cls-1{fill:#f15a24}</style></defs><path class="cls-1" d="M567.93 319.49h-34.68a7 7 0 0 0-5.64 3.32l-22.9 63.38-22.9-63.38a7 7 0 0 0-5.64-3.32h-34.68a2.41 2.41 0 0 0-2.32 2.49v109.68a2.37 2.37 0 0 0 2.32 2.32h30.7a2.53 2.53 0 0 0 2.49-2.32v-48.78l16.76 48.61c.49 1.33 2.65 2.49 4.14 2.49h18.26c1.49 0 3.65-1.16 4.14-2.49l16.76-48.61v48.78a2.53 2.53 0 0 0 2.49 2.32h30.7a2.37 2.37 0 0 0 2.32-2.32V322a2.41 2.41 0 0 0-2.32-2.51ZM632.64 368.94a29.19 29.19 0 0 1 15.93 5c1.16.83 2.32.33 3-1l9.63-20.24c.5-.83 0-2-1-2.82-9-5.65-21.24-9.46-30.69-9.46-30 0-50 19.25-50 48.12s19.91 48.11 50 48.11c9.45 0 21.73-3.81 30.69-9.45 1-.83 1.5-2 1-2.82l-9.63-20.25c-.66-1.32-1.82-1.82-3-1a29.19 29.19 0 0 1-15.93 5c-12.11 0-20.08-7.8-20.08-19.58s7.97-19.61 20.08-19.61ZM747 319.49h-74a2.38 2.38 0 0 0-2.33 2.33v109.67A2.53 2.53 0 0 0 673 434h29.37a2.53 2.53 0 0 0 2.49-2.32V392h30.36a2.92 2.92 0 0 0 2.82-2.16l2.32-23.23a2 2 0 0 0-2.15-2.15h-33.39v-15.1H747a2.36 2.36 0 0 0 2.49-2.49v-25.05a2.42 2.42 0 0 0-2.49-2.33ZM802.54 340.4c-29.2 0-48.78 19.25-48.78 48.12 0 28.7 19.58 48 48.78 48s48.79-19.25 48.79-48.12c0-28.75-19.58-48-48.79-48Zm0 66.2c-9.79 0-16.42-7.3-16.42-18.08 0-10.95 6.63-18.25 16.42-18.25s16.46 7.3 16.46 18.08c0 10.95-6.67 18.25-16.46 18.25ZM906.75 340.4c-29.21 0-48.79 19.25-48.79 48.12 0 28.7 19.58 48 48.79 48s48.78-19.25 48.78-48.12c0-28.75-19.53-48-48.78-48Zm0 66.2c-9.79 0-16.43-7.3-16.43-18.08 0-10.95 6.64-18.25 16.43-18.25s16.42 7.3 16.42 18.08c0 10.95-6.64 18.25-16.42 18.25ZM1057.9 313.69h-29.2a2.53 2.53 0 0 0-2.49 2.32v30.69c-5-4-12.45-6.3-20.24-6.3-26.22 0-43.81 19.25-43.81 48 0 28.87 17.59 48.12 43.81 48.12 11.11 0 21.73-4.31 28-11l2.49 6c.66 1.49 1.49 2.49 2.65 2.49h18.75a2.55 2.55 0 0 0 2.49-2.49V316a2.53 2.53 0 0 0-2.45-2.31ZM1026.21 399a14 14 0 0 1-13.11 9.13c-9.13 0-15.26-8-15.26-19.91 0-11.62 6.13-19.25 15.26-19.25a14 14 0 0 1 13.11 9.12ZM1117.8 340.4c-28.87 0-48.12 19.25-48.12 48.12 0 28.7 19.58 48 49 48 12.78 0 25.55-3.49 34.35-9.29 1.16-.67 1.49-1.33 1.16-2.49l-7.19-20.63a1.77 1.77 0 0 0-2.49-1.32 62.87 62.87 0 0 1-25.38 5.47c-13.94 0-13.94-10.45-13.94-10.45h53.26a2.16 2.16 0 0 0 2.49-2 37.73 37.73 0 0 0 .66-7.47c0-30.19-16.26-47.94-43.8-47.94Zm-12.78 40c0-7.3 5-12.12 12.45-12.12 6.63 0 11.11 4.82 11.11 12.12ZM1216.36 340.4c-28.87 0-48.12 19.25-48.12 48.12 0 28.7 19.58 48 49 48 12.77 0 25.55-3.49 34.34-9.29 1.17-.67 1.5-1.33 1.17-2.49l-7.14-20.58a1.77 1.77 0 0 0-2.49-1.32 62.87 62.87 0 0 1-25.38 5.47c-13.94 0-13.94-10.45-13.94-10.45h53.2a2.16 2.16 0 0 0 2.49-2 37.73 37.73 0 0 0 .66-7.47c.01-30.24-16.25-47.99-43.79-47.99Zm-12.78 40c0-7.3 5-12.12 12.45-12.12 6.63 0 11.11 4.82 11.11 12.12ZM364.37 316.39a9.57 9.57 0 0 1-.93 1.09l-.61.61-17.38 17.38-99.9 99.9a9.89 9.89 0 0 1-14-14l99.91-99.91-.08-.08a9.88 9.88 0 0 0-13.83-13.83l-.08-.08-99.9 99.93a9.89 9.89 0 0 1-14-14l99.9-99.9a10 10 0 0 0-14-14l-99.9 99.91a9.89 9.89 0 0 1-14-14l99.91-99.91 17.37-17.37.51-.51A131.92 131.92 0 1 0 366 314.06a24.72 24.72 0 0 1-1.63 2.33Z" transform="translate(-115.04 -239.27)"/></svg>